<svg xmlns="http://www.w3.org/2000/svg" width="900" height="1200" viewBox="0 0 900 1200">
  <defs>
    <linearGradient id="bg" x1="0" y1="0" x2="0" y2="1">
      <stop offset="0" stop-color="#0ea5e9"/>
      <stop offset="1" stop-color="#38bdf8"/>
    </linearGradient>
    <radialGradient id="skin" cx="50%" cy="35%" r="60%">
      <stop offset="0" stop-color="#f8d3ae"/>
      <stop offset="1" stop-color="#e5b087"/>
    </radialGradient>
  </defs>
  <rect width="900" height="1200" fill="#c58d2f"/>
  <rect x="24" y="24" width="852" height="1152" fill="#f4d97c" stroke="#b7791f" stroke-width="10"/>
  <rect x="60" y="60" width="780" height="1080" fill="url(#bg)"/>
  <ellipse cx="450" cy="510" rx="250" ry="310" fill="url(#skin)"/>
  <ellipse cx="340" cy="510" rx="34" ry="20" fill="#111827"/>
  <ellipse cx="560" cy="510" rx="34" ry="20" fill="#111827"/>
  <path d="M300 450 Q340 410 390 435" stroke="#374151" stroke-width="14" fill="none" stroke-linecap="round"/>
  <path d="M510 435 Q560 410 600 450" stroke="#374151" stroke-width="14" fill="none" stroke-linecap="round"/>
  <path d="M400 620 Q450 650 500 620" stroke="#7c2d12" stroke-width="10" fill="none" stroke-linecap="round"/>
  <path d="M330 660 Q450 620 570 660" stroke="#f8fafc" stroke-width="28" fill="none" stroke-linecap="round"/>
  <path d="M450 660 L390 900 L510 900 Z" fill="#f8fafc"/>
  <path d="M200 920 Q450 820 700 920 L700 1200 L200 1200 Z" fill="#f8fafc"/>
  <path d="M250 230 Q450 120 650 230" stroke="#d1d5db" stroke-width="28" fill="none" stroke-linecap="round"/>
</svg>
